<?xml version="1.0" encoding="utf-8"?>
<!-- Generator: Adobe Illustrator 22.0.1, SVG Export Plug-In . SVG Version: 6.00 Build 0)  -->
<svg version="1.1" id="Calque_1" xmlns="http://www.w3.org/2000/svg" xmlns:xlink="http://www.w3.org/1999/xlink" x="0px" y="0px"
	 viewBox="0 0 24 24" style="enable-background:new 0 0 24 24;" xml:space="preserve">
<style type="text/css">
	.st0{fill:#9B4D7D;}
</style>
<path class="st0" d="M21.6,11.1c-0.2-0.2-0.6-0.2-0.9-0.2C20.5,11,20.3,11,20,11c-1.7,0-3-1.3-3-2.9c0,0,0-0.1,0-0.2
	c0-0.6-0.4-1-1-1c-0.1,0-0.2,0-0.3,0C15.5,7,15.3,7,15,7c-1.7,0-3-1.3-3-3c0-0.2,0-0.4,0.1-0.7c0.1-0.5-0.2-1.1-0.7-1.2
	c-0.1,0-0.2,0-0.3,0C5.9,2.5,2,6.8,2,12c0,5.5,4.5,10,10,10s10-4.5,10-10c0,0,0-0.1,0-0.2C22,11.5,21.8,11.2,21.6,11.1z M12,20
	c-4.4,0-8-3.6-8-8c0-3.7,2.5-6.9,6-7.8C10.1,6.9,12.3,9,15,9l0.1,0c0.5,2.3,2.5,4,4.8,4C19.4,16.9,16.1,20,12,20z"/>
<circle class="st0" cx="12.5" cy="11.5" r="1.5"/>
<circle class="st0" cx="8.5" cy="8.5" r="1.5"/>
<circle class="st0" cx="7.5" cy="12.5" r="1.5"/>
<circle class="st0" cx="15.5" cy="15.5" r="1.5"/>
<circle class="st0" cx="10.5" cy="16.5" r="1.5"/>
</svg>
