<?xml version="1.0" encoding="utf-8"?>
<svg version="1.1" xmlns="http://www.w3.org/2000/svg" xmlns:xlink="http://www.w3.org/1999/xlink" x="0px" y="0px"
	 viewBox="0 0 800 800" style="enable-background:new 0 0 800 800;" xml:space="preserve">
<style type="text/css">
	.st0{fill:none;stroke:#231F20;stroke-width:10;stroke-miterlimit:10;}
	.st1{fill:none;stroke:#190B23;stroke-width:10;stroke-miterlimit:10;}
</style>
<g>
	<g>
		<g>
			<path class="st0" d="M520.2,119.1l-286,238.5c-7.4,6.2-11.4,15.5-10.9,25.1l9.8,172.7c1.4,25,30.7,37.7,49.9,21.7l262.4-218.9
				c7.4-6.2,11.4-15.5,10.9-25.1l-11.5-203.4C544.1,117.5,529.7,111.2,520.2,119.1z"/>
			<path class="st1" d="M392.1,717.4l-142.7-93.1c-8.1-5.3-13.2-14.1-13.8-23.8l-11.5-203.3c-0.7-12.3,12.9-20.2,23.2-13.4
				l289.5,190.5c17.1,11.3,18.5,35.8,2.7,48.9l-111.4,92.2C417.9,723.9,403.3,724.7,392.1,717.4z"/>
		</g>
	</g>
</g>
</svg>
